<svg width="1245" height="671" viewBox="0 0 1245 671" fill="none" xmlns="http://www.w3.org/2000/svg">
<rect x="12" y="117" width="945" height="508" rx="16" fill="#154450" fill-opacity="0.03"/>
<rect x="-20" y="64" width="945" height="106" rx="16" fill="#154450" fill-opacity="0.56"/>
<path d="M347.5 673.5L627 394H-2V673.5H347.5Z" fill="#154450"/>
<path d="M723 455L-5 229V455H723Z" fill="#154450" fill-opacity="0.6"/>
<path d="M754 671L26 445V671H754Z" fill="#154450" fill-opacity="0.8"/>
<path d="M484.5 265.5L-5 241.5V232.5L515.5 265.5H484.5Z" fill="#BDBFC0" fill-opacity="0.8"/>
<path d="M306.5 0.5L321 8V244C321 297.306 321 297.306 281.5 297.306L-2.5 318.5V293.5L251.5 281.992C306.5 279.5 306.5 279 306.5 244V0.5Z" fill="#D9D9D9" fill-opacity="0.8"/>
<path d="M259.023 673L500.25 313.61H481.466L0 673H259.023Z" fill="#BDBFC0" fill-opacity="0.8"/>
<path d="M0 498.568L522 269H500.25L0 428.395V498.568Z" fill="#BDBFC0" fill-opacity="0.8"/>
<path d="M259.023 673L500.25 313.61H481.466L0 673H259.023Z" stroke="#BDBFC0" stroke-opacity="0.8"/>
<path d="M0 498.568L522 269H500.25L0 428.395V498.568Z" stroke="#BDBFC0" stroke-opacity="0.8"/>
<path d="M833.5 535.5H485.5L455 567.5L900 561.5L833.5 535.5Z" fill="#D9D9D9" fill-opacity="0.8"/>
<path d="M1044.6 479H-4.08887L-4.08877 505H1245L1044.6 479Z" fill="#D9D9D9" fill-opacity="0.8"/>
<ellipse cx="507" cy="177.5" rx="47" ry="47.5" fill="#154450"/>
<path d="M509.739 265.751L469.207 185.57L547.601 184.276L509.739 265.751Z" fill="#154450"/>
<ellipse cx="507.5" cy="176" rx="36.5" ry="35" fill="#3C636D"/>
</svg>
