<svg width="300" height="200" viewBox="0 0 300 200" fill="none" xmlns="http://www.w3.org/2000/svg">
<rect width="300" height="200" rx="4" fill="#0B3C49" fill-opacity="0.8"/>
<rect y="52" width="300" height="148" rx="4" fill="#0B3C49" fill-opacity="0.8"/>
<path d="M0 96H181C183.209 96 185 97.7909 185 100V103C185 105.209 183.209 107 181 107H0V96Z" fill="#C5C5C5" fill-opacity="0.8"/>
<path d="M174 200V100C174 97.7909 175.791 96 178 96H181C183.209 96 185 97.7909 185 100V200H174Z" fill="#C5C5C5" fill-opacity="0.8"/>
<path d="M174 134H232C234.209 134 236 135.791 236 138V142C236 144.209 234.209 146 232 146H174V134Z" fill="#C5C5C5" fill-opacity="0.8"/>
<path d="M225 181V82C225 79.7909 226.791 78 229 78H232C234.209 78 236 79.7909 236 82V181H225Z" fill="#C5C5C5" fill-opacity="0.8"/>
<path d="M300 89L229 89C226.791 89 225 87.2091 225 85V82C225 79.7909 226.791 78 229 78L300 78V89Z" fill="#C5C5C5" fill-opacity="0.8"/>
<path d="M205 74L134 74C131.791 74 130 72.2091 130 70V67C130 64.7909 131.791 63 134 63L205 63V74Z" fill="#C5C5C5" fill-opacity="0.8"/>
<path d="M194 74V56C194 53.7909 195.791 52 198 52H201C203.209 52 205 53.7909 205 56V74H194Z" fill="#C5C5C5" fill-opacity="0.8"/>
<path d="M130 107V67C130 64.7909 131.791 63 134 63H137C139.209 63 141 64.7909 141 67V107H130Z" fill="#C5C5C5" fill-opacity="0.8"/>
<path d="M300 181H229C226.791 181 225 179.209 225 177V174C225 171.791 226.791 170 229 170H300V181Z" fill="#C5C5C5" fill-opacity="0.8"/>
<circle cx="36.5" cy="25.5" r="17.5" fill="#D9D9D9"/>
<path d="M37.4354 58.2218L22.4124 28.5031L51.4691 28.0233L37.4354 58.2218Z" fill="#D9D9D9"/>
<ellipse cx="36.5" cy="25" rx="13.5" ry="13" fill="#3C636D"/>
</svg>
